<svg xmlns="http://www.w3.org/2000/svg" xmlns:xlink="http://www.w3.org/1999/xlink" version="1.1" x="0px" y="0px" viewBox="0 0 512 640" enable-background="new 0 0 512 512" xml:space="preserve"><g><g><g><path d="M483.993,511.992c-2.211,0-4-1.789-4-4V4.008c0-2.211,1.789-4,4-4s4,1.789,4,4v503.984     C487.993,510.203,486.204,511.992,483.993,511.992z"/></g></g><g><g><path d="M395.996,511.992c-2.211,0-4-1.789-4-4V4.008c0-2.211,1.789-4,4-4s4,1.789,4,4v503.984     C399.996,510.203,398.207,511.992,395.996,511.992z"/></g></g><g><g><path d="M339.998,487.993H4.008c-2.211,0-4-1.789-4-4V4.008c0-2.211,1.789-4,4-4h335.99c2.21,0,3.999,1.789,3.999,4v479.985     C343.997,486.204,342.208,487.993,339.998,487.993z M8.008,479.993h327.99V8.008H8.008V479.993z"/></g></g><g><g><path d="M379.996,511.992c-6.616,0-11.999-5.383-11.999-12c0-2.211,1.789-4,4-4s4,1.789,4,4c0,2.203,1.797,4,3.999,4     c2.203,0,4-1.797,4-4c0-2.211,1.789-4,4-4s4,1.789,4,4C391.996,506.609,386.613,511.992,379.996,511.992z"/></g></g><g><g><path d="M387.996,495.992h-15.999c-2.211,0-4-1.789-4-4c0-2.21,1.789-3.999,4-3.999h15.999c2.211,0,4,1.789,4,3.999     C391.996,494.203,390.207,495.992,387.996,495.992z"/></g></g><g><g><path d="M371.997,495.992c-2.211,0-4-1.789-4-4v-7.999c0-2.211,1.789-4,4-4s4,1.789,4,4v7.999     C375.997,494.203,374.208,495.992,371.997,495.992z"/></g></g><g><g><path d="M371.997,487.993c-1.461,0-2.875-0.812-3.578-2.211c-0.984-1.977-0.188-4.383,1.789-5.367l15.999-8     c1.984-0.984,4.375-0.188,5.367,1.789c0.984,1.977,0.188,4.383-1.789,5.367l-15.999,8     C373.208,487.853,372.599,487.993,371.997,487.993z"/></g></g><g><g><path d="M499.993,511.992c-6.617,0-12-5.383-12-12c0-2.211,1.789-4,4-4s4,1.789,4,4c0,2.203,1.797,4,4,4s4-1.797,4-4     c0-2.211,1.789-4,3.999-4c2.211,0,4,1.789,4,4C511.992,506.609,506.61,511.992,499.993,511.992z"/></g></g><g><g><path d="M507.992,495.992h-15.999c-2.211,0-4-1.789-4-4c0-2.21,1.789-3.999,4-3.999h15.999c2.211,0,4,1.789,4,3.999     C511.992,494.203,510.203,495.992,507.992,495.992z"/></g></g><g><g><path d="M507.992,495.992c-2.21,0-3.999-1.789-3.999-4v-7.999c0-2.211,1.789-4,3.999-4c2.211,0,4,1.789,4,4v7.999     C511.992,494.203,510.203,495.992,507.992,495.992z"/></g></g><g><g><path d="M507.992,487.993c-0.601,0-1.21-0.141-1.788-0.422l-16-8c-1.977-0.984-2.773-3.391-1.789-5.367     c0.992-1.977,3.391-2.766,5.367-1.789l15.999,8c1.977,0.984,2.773,3.391,1.789,5.367     C510.867,487.181,509.453,487.993,507.992,487.993z"/></g></g><g><g><path d="M475.993,423.995h-71.997c-2.211,0-4-1.789-4-4s1.789-4,4-4h71.997c2.211,0,4,1.789,4,4S478.204,423.995,475.993,423.995     z"/></g></g><g><g><path d="M475.993,343.997h-71.997c-2.211,0-4-1.789-4-3.999c0-2.211,1.789-4,4-4h71.997c2.211,0,4,1.789,4,4     C479.993,342.208,478.204,343.997,475.993,343.997z"/></g></g><g><g><path d="M475.993,264h-71.997c-2.211,0-4-1.789-4-4s1.789-4,4-4h71.997c2.211,0,4,1.789,4,4S478.204,264,475.993,264z"/></g></g><g><g><path d="M475.993,184.002h-71.997c-2.211,0-4-1.789-4-4c0-2.211,1.789-4,4-4h71.997c2.211,0,4,1.789,4,4     C479.993,182.213,478.204,184.002,475.993,184.002z"/></g></g><g><g><path d="M475.993,104.005h-71.997c-2.211,0-4-1.789-4-4s1.789-4,4-4h71.997c2.211,0,4,1.789,4,4S478.204,104.005,475.993,104.005     z"/></g></g><g><g><path d="M331.998,104.005H12.008c-2.211,0-4-1.789-4-4s1.789-4,4-4h319.99c2.211,0,4,1.789,4,4S334.209,104.005,331.998,104.005z     "/></g></g><g><g><path d="M331.998,200.002H12.008c-2.211,0-4-1.789-4-4s1.789-4,4-4h319.99c2.211,0,4,1.789,4,4S334.209,200.002,331.998,200.002z     "/></g></g><g><g><path d="M331.998,295.999H12.008c-2.211,0-4-1.789-4-4s1.789-4,4-4h319.99c2.211,0,4,1.789,4,4S334.209,295.999,331.998,295.999z     "/></g></g><g><g><path d="M331.998,391.996H12.008c-2.211,0-4-1.789-4-4s1.789-4,4-4h319.99c2.211,0,4,1.789,4,4S334.209,391.996,331.998,391.996z     "/></g></g><g><g><path d="M28.007,511.992c-6.617,0-11.999-5.383-11.999-12c0-2.211,1.789-4,4-4c2.21,0,4,1.789,4,4c0,2.203,1.797,4,4,4     c2.203,0,4-1.797,4-4c0-2.211,1.789-4,4-4s4,1.789,4,4C40.007,506.609,34.624,511.992,28.007,511.992z"/></g></g><g><g><path d="M20.008,503.992c-2.211,0-4-1.789-4-4v-8c0-2.21,1.789-3.999,4-3.999c2.21,0,4,1.789,4,3.999v8     C24.007,502.203,22.218,503.992,20.008,503.992z"/></g></g><g><g><path d="M36.007,503.992c-2.211,0-4-1.789-4-4v-8c0-2.21,1.789-3.999,4-3.999s4,1.789,4,3.999v8     C40.007,502.203,38.218,503.992,36.007,503.992z"/></g></g><g><g><path d="M315.998,511.992c-6.616,0-11.999-5.383-11.999-12c0-2.211,1.789-4,4-4s4,1.789,4,4c0,2.203,1.797,4,3.999,4     c2.203,0,4-1.797,4-4c0-2.211,1.789-4,4-4s4,1.789,4,4C327.998,506.609,322.615,511.992,315.998,511.992z"/></g></g><g><g><path d="M307.999,503.992c-2.211,0-4-1.789-4-4v-8c0-2.21,1.789-3.999,4-3.999s4,1.789,4,3.999v8     C311.999,502.203,310.21,503.992,307.999,503.992z"/></g></g><g><g><path d="M323.998,503.992c-2.211,0-4-1.789-4-4v-8c0-2.21,1.789-3.999,4-3.999s4,1.789,4,3.999v8     C327.998,502.203,326.209,503.992,323.998,503.992z"/></g></g><g><g><path d="M44.007,96.005c-2.211,0-4-1.789-4-4V32.007h-8v59.998c0,2.211-1.789,4-4,4c-2.21,0-4-1.789-4-4V28.007     c0-2.211,1.789-4,4-4h16c2.211,0,4,1.789,4,4v63.998C48.007,94.216,46.218,96.005,44.007,96.005z"/></g></g><g><g><path d="M76.006,96.005c-2.211,0-4-1.789-4-4V24.007h-8v67.998c0,2.211-1.789,4-4,4c-2.21,0-4-1.789-4-4V20.007     c0-2.211,1.789-4,4-4h16c2.211,0,4,1.789,4,4v71.998C80.006,94.216,78.217,96.005,76.006,96.005z"/></g></g><g><g><path d="M276,96.005c-2.211,0-4-1.789-4-4V72.006h-79.998v19.999c0,2.211-1.789,4-4,4c-2.21,0-4-1.789-4-4V68.006     c0-2.211,1.789-4,4-4H276c2.21,0,3.999,1.789,3.999,4v23.999C279.999,94.216,278.21,96.005,276,96.005z"/></g></g><g><g><path d="M276,64.006c-2.211,0-4-1.789-4-4V40.007h-79.998v19.999c0,2.211-1.789,4-4,4c-2.21,0-4-1.789-4-4V36.007     c0-2.211,1.789-4,4-4H276c2.21,0,3.999,1.789,3.999,4v23.999C279.999,62.217,278.21,64.006,276,64.006z"/></g></g><g><g><path d="M124.004,96.005c-2.21,0-4-1.789-4-4V24.007h-24v67.998c0,2.211-1.789,4-4,4c-2.21,0-4-1.789-4-4V20.007     c0-2.211,1.789-4,4-4h31.999c2.211,0,4,1.789,4,4v71.998C128.004,94.216,126.215,96.005,124.004,96.005z"/></g></g><g><g><path d="M108.005,88.005c-2.211,0-4-1.789-4-4V36.007c0-2.211,1.789-4,4-4s4,1.789,4,4v47.999     C112.005,86.216,110.216,88.005,108.005,88.005z"/></g></g><g><g><path d="M172.003,96.005c-2.211,0-4-1.789-4-4V40.007h-23.999v51.998c0,2.211-1.789,4-4,4s-4-1.789-4-4V36.007     c0-2.211,1.789-4,4-4h31.999c2.211,0,4,1.789,4,4v55.998C176.003,94.216,174.214,96.005,172.003,96.005z"/></g></g><g><g><path d="M156.003,88.005c-2.21,0-4-1.789-4-4V52.006c0-2.211,1.789-4,4-4c2.211,0,4,1.789,4,4v31.999     C160.003,86.216,158.214,88.005,156.003,88.005z"/></g></g><g><g><path d="M164.003,192.002c-2.211,0-4-1.789-4-4v-59.998h-23.999v59.998c0,2.211-1.789,4-4,4s-4-1.789-4-4v-63.998     c0-2.211,1.789-4,4-4h31.999c2.211,0,4,1.789,4,4v63.998C168.003,190.213,166.214,192.002,164.003,192.002z"/></g></g><g><g><path d="M148.004,184.002c-2.211,0-4-1.789-4-4v-39.999c0-2.21,1.789-4,4-4c2.21,0,4,1.789,4,4v39.999     C152.003,182.213,150.214,184.002,148.004,184.002z"/></g></g><g><g><path d="M60.006,287.999c-2.21,0-4-1.789-4-4v-51.998h-24v51.998c0,2.211-1.789,4-4,4c-2.21,0-4-1.789-4-4v-55.998     c0-2.211,1.789-4,4-4h31.999c2.211,0,4,1.789,4,4v55.998C64.006,286.21,62.217,287.999,60.006,287.999z"/></g></g><g><g><path d="M44.007,279.999c-2.211,0-4-1.789-4-3.999v-32c0-2.211,1.789-4,4-4s4,1.789,4,4v32     C48.007,278.21,46.218,279.999,44.007,279.999z"/></g></g><g><g><path d="M140.004,383.996c-2.211,0-4-1.789-4-4v-51.998h-23.999v51.998c0,2.211-1.789,4-4,4s-4-1.789-4-4v-55.998     c0-2.211,1.789-4,4-4h31.999c2.211,0,4,1.789,4,4v55.998C144.004,382.207,142.215,383.996,140.004,383.996z"/></g></g><g><g><path d="M124.004,375.996c-2.21,0-4-1.789-4-4v-31.998c0-2.211,1.789-4,4-4c2.211,0,4,1.789,4,4v31.998     C128.004,374.207,126.215,375.996,124.004,375.996z"/></g></g><g><g><path d="M188.002,383.996c-2.21,0-4-1.789-4-4v-59.998h-24v59.998c0,2.211-1.789,4-4,4c-2.21,0-4-1.789-4-4v-63.998     c0-2.211,1.789-4,4-4h31.999c2.211,0,4,1.789,4,4v63.998C192.002,382.207,190.213,383.996,188.002,383.996z"/></g></g><g><g><path d="M172.003,375.996c-2.211,0-4-1.789-4-4v-39.998c0-2.211,1.789-4,4-4s4,1.789,4,4v39.998     C176.003,374.207,174.214,375.996,172.003,375.996z"/></g></g><g><g><path d="M212.002,479.993c-2.211,0-4-1.789-4-4v-59.998h-39.999v59.998c0,2.211-1.789,4-4,4s-4-1.789-4-4v-63.998     c0-2.211,1.789-4,4-4h47.999c2.21,0,4,1.789,4,4v63.998C216.001,478.204,214.212,479.993,212.002,479.993z"/></g></g><g><g><path d="M188.002,471.993c-2.21,0-4-1.789-4-3.999v-40c0-2.21,1.789-3.999,4-3.999c2.211,0,4,1.789,4,3.999v40     C192.002,470.204,190.213,471.993,188.002,471.993z"/></g></g><g><g><path d="M92.005,287.999c-2.21,0-4-1.789-4-4v-67.998h-8v67.998c0,2.211-1.789,4-4,4s-4-1.789-4-4v-71.998c0-2.211,1.789-4,4-4     h15.999c2.211,0,4,1.789,4,4v71.998C96.005,286.21,94.216,287.999,92.005,287.999z"/></g></g><g><g><path d="M124.004,287.999c-2.21,0-4-1.789-4-4v-51.998h-8v51.998c0,2.211-1.789,4-4,4s-4-1.789-4-4v-55.998c0-2.211,1.789-4,4-4     h15.999c2.211,0,4,1.789,4,4v55.998C128.004,286.21,126.215,287.999,124.004,287.999z"/></g></g><g><g><path d="M220.001,383.996c-2.21,0-4-1.789-4-4v-35.999h-8v35.999c0,2.211-1.789,4-4,4s-4-1.789-4-4v-39.998c0-2.211,1.789-4,4-4     h15.999c2.211,0,4,1.789,4,4v39.998C224.001,382.207,222.212,383.996,220.001,383.996z"/></g></g><g><g><path d="M172.003,287.999c-2.211,0-4-1.789-4-4v-67.998h-23.999v67.998c0,2.211-1.789,4-4,4s-4-1.789-4-4v-71.998     c0-2.211,1.789-4,4-4h31.999c2.211,0,4,1.789,4,4v71.998C176.003,286.21,174.214,287.999,172.003,287.999z"/></g></g><g><g><path d="M156.003,279.999c-2.21,0-4-1.789-4-3.999v-47.999c0-2.211,1.789-4,4-4c2.211,0,4,1.789,4,4V276     C160.003,278.21,158.214,279.999,156.003,279.999z"/></g></g><g><g><path d="M220.001,287.999c-2.21,0-4-1.789-4-4v-51.998h-24v51.998c0,2.211-1.789,4-4,4c-2.21,0-4-1.789-4-4v-55.998     c0-2.211,1.789-4,4-4h31.999c2.211,0,4,1.789,4,4v55.998C224.001,286.21,222.212,287.999,220.001,287.999z"/></g></g><g><g><path d="M204.002,279.999c-2.211,0-4-1.789-4-3.999v-32c0-2.211,1.789-4,4-4s4,1.789,4,4v32     C208.002,278.21,206.213,279.999,204.002,279.999z"/></g></g><g><g><path d="M291.999,192.002c-2.211,0-4-1.789-4-4v-67.998h-8v67.998c0,2.211-1.789,4-3.999,4c-2.211,0-4-1.789-4-4v-71.998     c0-2.211,1.789-4,4-4h15.999c2.211,0,4,1.789,4,4v71.998C295.999,190.213,294.21,192.002,291.999,192.002z"/></g></g><g><g><path d="M323.998,192.002c-2.211,0-4-1.789-4-4v-67.998h-7.999v67.998c0,2.211-1.789,4-4,4s-4-1.789-4-4v-71.998     c0-2.211,1.789-4,4-4h15.999c2.211,0,4,1.789,4,4v71.998C327.998,190.213,326.209,192.002,323.998,192.002z"/></g></g><g><g><path d="M52.007,479.993c-2.211,0-4-1.789-4-4v-51.998h-24v51.998c0,2.211-1.789,4-4,4c-2.211,0-4-1.789-4-4v-55.998     c0-2.211,1.789-4,4-4h31.999c2.21,0,4,1.789,4,4v55.998C56.006,478.204,54.217,479.993,52.007,479.993z"/></g></g><g><g><path d="M84.006,479.993c-2.211,0-4-1.789-4-4v-67.998h-8v67.998c0,2.211-1.789,4-4,4s-4-1.789-4-4v-71.997c0-2.211,1.789-4,4-4     h16c2.21,0,4,1.789,4,4v71.997C88.005,478.204,86.216,479.993,84.006,479.993z"/></g></g><g><g><path d="M116.005,479.993c-2.211,0-4-1.789-4-4v-59.998h-8v59.998c0,2.211-1.789,4-4,4s-4-1.789-4-4v-63.998c0-2.211,1.789-4,4-4     h16c2.21,0,4,1.789,4,4v63.998C120.004,478.204,118.215,479.993,116.005,479.993z"/></g></g><g><g><path d="M148.004,479.993c-2.211,0-4-1.789-4-4v-59.998h-8v59.998c0,2.211-1.789,4-4,4s-4-1.789-4-4v-63.998c0-2.211,1.789-4,4-4     h16c2.21,0,4,1.789,4,4v63.998C152.003,478.204,150.214,479.993,148.004,479.993z"/></g></g><g><g><path d="M323.998,96.005c-2.211,0-4-1.789-4-4V24.007h-23.999v67.998c0,2.211-1.789,4-4,4s-4-1.789-4-4V20.007     c0-2.211,1.789-4,4-4h31.999c2.211,0,4,1.789,4,4v71.998C327.998,94.216,326.209,96.005,323.998,96.005z"/></g></g><g><g><path d="M307.999,88.005c-2.211,0-4-1.789-4-4V36.007c0-2.211,1.789-4,4-4s4,1.789,4,4v47.999     C311.999,86.216,310.21,88.005,307.999,88.005z"/></g></g><g><g><path d="M260,56.006h-55.998c-2.211,0-4-1.789-4-4c0-2.211,1.789-4,4-4H260c2.211,0,4,1.789,4,4     C264,54.217,262.211,56.006,260,56.006z"/></g></g><g><g><path d="M260,88.005h-55.998c-2.211,0-4-1.789-4-4c0-2.211,1.789-4,4-4H260c2.211,0,4,1.789,4,4     C264,86.216,262.211,88.005,260,88.005z"/></g></g><g><g><path d="M323.998,383.996c-2.211,0-4-1.789-4-4v-19.999h-79.997v19.999c0,2.211-1.789,4-4,4s-4-1.789-4-4v-23.999     c0-2.211,1.789-4,4-4h87.997c2.211,0,4,1.789,4,4v23.999C327.998,382.207,326.209,383.996,323.998,383.996z"/></g></g><g><g><path d="M323.998,351.997c-2.211,0-4-1.789-4-4v-19.999h-79.997v19.999c0,2.211-1.789,4-4,4s-4-1.789-4-4v-23.999     c0-2.211,1.789-4,4-4h87.997c2.211,0,4,1.789,4,4v23.999C327.998,350.208,326.209,351.997,323.998,351.997z"/></g></g><g><g><path d="M307.999,343.997H252c-2.21,0-4-1.789-4-3.999c0-2.211,1.789-4,4-4h55.999c2.211,0,4,1.789,4,4     C311.999,342.208,310.21,343.997,307.999,343.997z"/></g></g><g><g><path d="M307.999,375.996H252c-2.21,0-4-1.789-4-4s1.789-4,4-4h55.999c2.211,0,4,1.789,4,4S310.21,375.996,307.999,375.996z"/></g></g><g><g><path d="M116.005,192.002c-2.211,0-4-1.789-4-4v-4H32.007v4c0,2.211-1.789,4-4,4c-2.21,0-4-1.789-4-4v-8c0-2.211,1.789-4,4-4     h87.998c2.21,0,4,1.789,4,4v8C120.004,190.213,118.215,192.002,116.005,192.002z"/></g></g><g><g><path d="M116.005,176.002c-2.211,0-4-1.789-4-4v-4H32.007v4c0,2.211-1.789,4-4,4c-2.21,0-4-1.789-4-4v-8c0-2.211,1.789-4,4-4     h87.998c2.21,0,4,1.789,4,4v8C120.004,174.213,118.215,176.002,116.005,176.002z"/></g></g><g><g><path d="M116.005,160.003c-2.211,0-4-1.789-4-4v-4H32.007v4c0,2.211-1.789,4-4,4c-2.21,0-4-1.789-4-4v-8c0-2.211,1.789-4,4-4     h87.998c2.21,0,4,1.789,4,4v8C120.004,158.214,118.215,160.003,116.005,160.003z"/></g></g><g><g><path d="M116.005,144.003c-2.211,0-4-1.789-4-4v-4H32.007v4c0,2.211-1.789,4-4,4c-2.21,0-4-1.789-4-4v-8c0-2.211,1.789-4,4-4     h87.998c2.21,0,4,1.789,4,4v8C120.004,142.214,118.215,144.003,116.005,144.003z"/></g></g><g><g><path d="M260,192.002c-2.211,0-4-1.789-4-4v-35.999h-71.998v35.999c0,2.211-1.789,4-4,4c-2.211,0-4-1.789-4-4v-39.999     c0-2.211,1.789-4,4-4H260c2.211,0,4,1.789,4,4v39.999C264,190.213,262.211,192.002,260,192.002z"/></g></g><g><g><path d="M244.001,176.002h-47.999c-2.211,0-4-1.789-4-4c0-2.21,1.789-4,4-4h47.999c2.21,0,4,1.789,4,4     C248,174.213,246.211,176.002,244.001,176.002z"/></g></g><g><g><path d="M323.998,279.999h-87.997c-2.211,0-4-1.789-4-3.999c0-2.211,1.789-4,4-4h87.997c2.211,0,4,1.789,4,4     C327.998,278.21,326.209,279.999,323.998,279.999z"/></g></g><g><g><path d="M323.998,287.999c-2.211,0-4-1.789-4-4V276c0-2.211,1.789-4,4-4s4,1.789,4,4v7.999     C327.998,286.21,326.209,287.999,323.998,287.999z"/></g></g><g><g><path d="M236.001,287.999c-2.211,0-4-1.789-4-4V276c0-2.211,1.789-4,4-4s4,1.789,4,4v7.999     C240.001,286.21,238.212,287.999,236.001,287.999z"/></g></g><g><g><path d="M323.998,264h-87.997c-2.211,0-4-1.789-4-4s1.789-4,4-4h87.997c2.211,0,4,1.789,4,4S326.209,264,323.998,264z"/></g></g><g><g><path d="M323.998,272c-2.211,0-4-1.789-4-4v-8c0-2.211,1.789-4,4-4s4,1.789,4,4v8C327.998,270.211,326.209,272,323.998,272z"/></g></g><g><g><path d="M236.001,272c-2.211,0-4-1.789-4-4v-8c0-2.211,1.789-4,4-4s4,1.789,4,4v8C240.001,270.211,238.212,272,236.001,272z"/></g></g><g><g><path d="M323.998,248h-87.997c-2.211,0-4-1.789-4-4c0-2.211,1.789-4,4-4h87.997c2.211,0,4,1.789,4,4     C327.998,246.211,326.209,248,323.998,248z"/></g></g><g><g><path d="M323.998,256c-2.211,0-4-1.789-4-4v-8c0-2.211,1.789-4,4-4s4,1.789,4,4v8C327.998,254.211,326.209,256,323.998,256z"/></g></g><g><g><path d="M236.001,256c-2.211,0-4-1.789-4-4v-8c0-2.211,1.789-4,4-4s4,1.789,4,4v8C240.001,254.211,238.212,256,236.001,256z"/></g></g><g><g><path d="M323.998,471.993h-95.997c-2.211,0-4-1.789-4-3.999c0-2.211,1.789-4,4-4h95.997c2.211,0,4,1.789,4,4     C327.998,470.204,326.209,471.993,323.998,471.993z"/></g></g><g><g><path d="M323.998,479.993c-2.211,0-4-1.789-4-4v-7.999c0-2.211,1.789-4,4-4s4,1.789,4,4v7.999     C327.998,478.204,326.209,479.993,323.998,479.993z"/></g></g><g><g><path d="M228.001,479.993c-2.211,0-4-1.789-4-4v-7.999c0-2.211,1.789-4,4-4s4,1.789,4,4v7.999     C232.001,478.204,230.212,479.993,228.001,479.993z"/></g></g><g><g><path d="M323.998,455.994h-95.997c-2.211,0-4-1.789-4-4s1.789-4,4-4h95.997c2.211,0,4,1.789,4,4S326.209,455.994,323.998,455.994     z"/></g></g><g><g><path d="M323.998,463.994c-2.211,0-4-1.789-4-4v-8c0-2.211,1.789-4,4-4s4,1.789,4,4v8     C327.998,462.205,326.209,463.994,323.998,463.994z"/></g></g><g><g><path d="M228.001,463.994c-2.211,0-4-1.789-4-4v-8c0-2.211,1.789-4,4-4s4,1.789,4,4v8     C232.001,462.205,230.212,463.994,228.001,463.994z"/></g></g><g><g><path d="M323.998,439.994h-95.997c-2.211,0-4-1.789-4-4s1.789-4,4-4h95.997c2.211,0,4,1.789,4,4S326.209,439.994,323.998,439.994     z"/></g></g><g><g><path d="M323.998,447.994c-2.211,0-4-1.789-4-4v-8c0-2.211,1.789-4,4-4s4,1.789,4,4v8     C327.998,446.205,326.209,447.994,323.998,447.994z"/></g></g><g><g><path d="M228.001,447.994c-2.211,0-4-1.789-4-4v-8c0-2.211,1.789-4,4-4s4,1.789,4,4v8     C232.001,446.205,230.212,447.994,228.001,447.994z"/></g></g><g><g><path d="M323.998,423.995h-95.997c-2.211,0-4-1.789-4-4s1.789-4,4-4h95.997c2.211,0,4,1.789,4,4S326.209,423.995,323.998,423.995     z"/></g></g><g><g><path d="M323.998,431.994c-2.211,0-4-1.789-4-4v-7.999c0-2.211,1.789-4,4-4s4,1.789,4,4v7.999     C327.998,430.205,326.209,431.994,323.998,431.994z"/></g></g><g><g><path d="M228.001,431.994c-2.211,0-4-1.789-4-4v-7.999c0-2.211,1.789-4,4-4s4,1.789,4,4v7.999     C232.001,430.205,230.212,431.994,228.001,431.994z"/></g></g><g><g><path d="M92.005,375.996H20.008c-2.211,0-4-1.789-4-4s1.789-4,4-4h71.997c2.211,0,4,1.789,4,4S94.216,375.996,92.005,375.996z"/></g></g><g><g><path d="M92.005,383.996c-2.21,0-4-1.789-4-4v-8c0-2.211,1.789-4,4-4c2.211,0,4,1.789,4,4v8     C96.005,382.207,94.216,383.996,92.005,383.996z"/></g></g><g><g><path d="M20.008,383.996c-2.211,0-4-1.789-4-4v-8c0-2.211,1.789-4,4-4c2.21,0,4,1.789,4,4v8     C24.007,382.207,22.218,383.996,20.008,383.996z"/></g></g><g><g><path d="M92.005,359.997H20.008c-2.211,0-4-1.789-4-4s1.789-4,4-4h71.997c2.211,0,4,1.789,4,4S94.216,359.997,92.005,359.997z"/></g></g><g><g><path d="M92.005,367.996c-2.21,0-4-1.789-4-4v-7.999c0-2.211,1.789-4,4-4c2.211,0,4,1.789,4,4v7.999     C96.005,366.207,94.216,367.996,92.005,367.996z"/></g></g><g><g><path d="M20.008,367.996c-2.211,0-4-1.789-4-4v-7.999c0-2.211,1.789-4,4-4c2.21,0,4,1.789,4,4v7.999     C24.007,366.207,22.218,367.996,20.008,367.996z"/></g></g><g><g><path d="M92.005,343.997H20.008c-2.211,0-4-1.789-4-3.999c0-2.211,1.789-4,4-4h71.997c2.211,0,4,1.789,4,4     C96.005,342.208,94.216,343.997,92.005,343.997z"/></g></g><g><g><path d="M92.005,351.997c-2.21,0-4-1.789-4-4v-7.999c0-2.211,1.789-4,4-4c2.211,0,4,1.789,4,4v7.999     C96.005,350.208,94.216,351.997,92.005,351.997z"/></g></g><g><g><path d="M20.008,351.997c-2.211,0-4-1.789-4-4v-7.999c0-2.211,1.789-4,4-4c2.21,0,4,1.789,4,4v7.999     C24.007,350.208,22.218,351.997,20.008,351.997z"/></g></g><g><g><path d="M92.005,327.998H20.008c-2.211,0-4-1.789-4-4s1.789-4,4-4h71.997c2.211,0,4,1.789,4,4S94.216,327.998,92.005,327.998z"/></g></g><g><g><path d="M92.005,335.998c-2.21,0-4-1.789-4-4v-8c0-2.211,1.789-4,4-4c2.211,0,4,1.789,4,4v8     C96.005,334.209,94.216,335.998,92.005,335.998z"/></g></g><g><g><path d="M20.008,335.998c-2.211,0-4-1.789-4-4v-8c0-2.211,1.789-4,4-4c2.21,0,4,1.789,4,4v8     C24.007,334.209,22.218,335.998,20.008,335.998z"/></g></g><g><g><path d="M92.005,311.998H20.008c-2.211,0-4-1.789-4-4s1.789-4,4-4h71.997c2.211,0,4,1.789,4,4S94.216,311.998,92.005,311.998z"/></g></g><g><g><path d="M92.005,319.998c-2.21,0-4-1.789-4-4v-8c0-2.211,1.789-4,4-4c2.211,0,4,1.789,4,4v8     C96.005,318.209,94.216,319.998,92.005,319.998z"/></g></g><g><g><path d="M20.008,319.998c-2.211,0-4-1.789-4-4v-8c0-2.211,1.789-4,4-4c2.21,0,4,1.789,4,4v8     C24.007,318.209,22.218,319.998,20.008,319.998z"/></g></g><g><g><path d="M36.007,471.993c-2.211,0-4-1.789-4-3.999v-32c0-2.211,1.789-4,4-4s4,1.789,4,4v32     C40.007,470.204,38.218,471.993,36.007,471.993z"/></g></g></g></svg>
