<svg xmlns="http://www.w3.org/2000/svg" xmlns:xlink="http://www.w3.org/1999/xlink" version="1.1" x="0px" y="0px" viewBox="0 0 100 125" style="enable-background:new 0 0 100 100;" xml:space="preserve"><path d="M81.8085938,49.515625h-1.9117432c0.0001221-0.0432739,0.0025635-0.0860596,0.0025635-0.1293945V34.8696289  c0-0.5522461-0.4472656-1-1-1H11c-0.5527344,0-1,0.4477539-1,1v14.5166016c0,13.7966309,7.8945312,25.9550171,20.0809937,31.6367188  H11c-0.5527344,0-1,0.4477539-1,1v1.1728516C10,86.9477539,13.0527344,90,16.8046875,90h59.1923828  c3.7519531,0,6.8046875-3.0522461,6.8046875-6.8041992v-1.1728516c0-0.5522461-0.4472656-1-1-1H59.8192749  c6.9435425-3.2373657,12.4918823-8.5761719,15.9810181-15.1254883h6.0083008C86.3251953,65.8974609,90,62.2231445,90,57.706543  S86.3251953,49.515625,81.8085938,49.515625z M77.8994141,49.3862305c0,0.0435181-0.0050049,0.0859375-0.005127,0.1293945  H65.7285156v-1.6665039c0-0.3691406-0.203125-0.7084961-0.5292969-0.8823242l-5.9609375-3.1791382v-7.9180298h18.6611328V49.3862305  z M52.7490234,48.4492188l4.4892578-2.3947754v4.338623c0,0.5522461,0.4472656,1,1,1s1-0.4477539,1-1v-4.3387451  l4.4902344,2.3948975v11.8120117H52.7490234V48.4492188z M12,35.8696289h45.2382812v7.9180908l-5.9599609,3.1790771  c-0.3261719,0.1738281-0.5292969,0.5131836-0.5292969,0.8823242v1.6665039H12.005188  C12.0050049,49.472168,12,49.4297485,12,49.3862305V35.8696289z M80.8017578,83.1958008  C80.8017578,85.8447266,78.6464844,88,75.9970703,88H16.8046875C14.1552734,88,12,85.8447266,12,83.1958008v-0.1728516h68.8017578  V83.1958008z M54.5449219,80.9125977c-0.0774536,0.0234985-0.1381836,0.0710449-0.2050171,0.1103516H35.5604858  c-0.0668335-0.0393066-0.1275635-0.086853-0.2050171-0.1103516C22.0704956,76.8746338,12.9493408,65.2144775,12.0853271,51.515625  h38.6636963v9.7456055c0,0.5522461,0.4472656,1,1,1h12.9794922c0.5527344,0,1-0.4477539,1-1V51.515625h12.0855713  C76.9499512,65.2140503,67.8289795,76.8741455,54.5449219,80.9125977z M81.8085938,63.8974609h-5.0255127  c1.7321777-3.8257446,2.786377-8.0059204,3.0461426-12.3818359h1.9793701C85.2226562,51.515625,88,54.2929688,88,57.706543  S85.2226562,63.8974609,81.8085938,63.8974609z"/><path d="M40.6074219,27.2919922c0.5527344,0,1-0.4477539,1-1s-0.4472656-1-1-1  c-1.5566406,0-2.8222656-1.2666016-2.8222656-2.8232422s1.265625-2.8227539,2.8222656-2.8227539  c2.6591797,0,4.8232422-2.1635742,4.8232422-4.8232422C45.4306641,12.1635742,43.2666016,10,40.6074219,10  c-0.5527344,0-1,0.4477539-1,1s0.4472656,1,1,1c1.5566406,0,2.8232422,1.2661133,2.8232422,2.8227539  s-1.2666016,2.8232422-2.8232422,2.8232422c-2.6591797,0-4.8222656,2.1635742-4.8222656,4.8227539  C35.7851562,25.128418,37.9482422,27.2919922,40.6074219,27.2919922z"/><path d="M52.1943359,27.2919922c0.5527344,0,1-0.4477539,1-1s-0.4472656-1-1-1  c-1.5566406,0-2.8232422-1.2666016-2.8232422-2.8232422s1.2666016-2.8227539,2.8232422-2.8227539  c2.6591797,0,4.8222656-2.1635742,4.8222656-4.8232422C57.0166016,12.1635742,54.8535156,10,52.1943359,10  c-0.5527344,0-1,0.4477539-1,1s0.4472656,1,1,1c1.5566406,0,2.8222656,1.2661133,2.8222656,2.8227539  s-1.265625,2.8232422-2.8222656,2.8232422c-2.6591797,0-4.8232422,2.1635742-4.8232422,4.8227539  C47.3710938,25.128418,49.5351562,27.2919922,52.1943359,27.2919922z"/></svg>
