<svg xmlns="http://www.w3.org/2000/svg" xmlns:xlink="http://www.w3.org/1999/xlink" version="1.1" x="0px" y="0px" viewBox="0 0 100 125" style="enable-background:new 0 0 100 100;" xml:space="preserve"><path d="M94.8,65.7V48.1c0-3.6-2.1-6.7-5.2-8.1l0,0L44.1,8.4l-0.3-0.2C42.6,7.4,41.3,7,39.9,7c-3.5,0-6.4,2.5-7,5.8  c-0.1,0.2-0.1,0.3-0.1,0.5V23H9.6c-2.5,0-4.4,3.3-4.4,7.8c0,2.7,0.7,5,1.9,6.4H6.7c0,0,0,0-0.1,0c0,0-0.1,0-0.1,0c0,0-0.1,0-0.1,0  c0,0,0,0-0.1,0c0,0-0.1,0-0.1,0.1c0,0-0.1,0-0.1,0.1c0,0-0.1,0.1-0.1,0.1c0,0-0.1,0.1-0.1,0.1c0,0-0.1,0.1-0.1,0.1c0,0,0,0.1,0,0.1  c0,0,0,0,0,0c0,0.1,0,0.1,0,0.2c0,0,0,0.1,0,0.1c0,0,0,0,0,0v16.3c0,0.3,0.1,0.5,0.3,0.7l37.5,37.5c0.1,0.1,0.2,0.2,0.3,0.2  C43.9,93,44,93,44.2,93h48.2c0.6,0,1-0.5,1-1V73.6c0,0,0,0,0-0.1c0-0.1,0-0.2-0.1-0.3c0,0,0-0.1,0-0.1c0-0.1-0.1-0.1-0.1-0.2  c0,0,0-0.1-0.1-0.1c0,0,0,0,0,0l-0.9-0.8C93.8,70.5,94.8,68.2,94.8,65.7z M92.8,48.1v17.6c0,3.8-3.1,6.9-6.9,6.9H84  c-3.8,0-6.9-3.1-6.9-6.9V48.1c0-3.8,3.1-6.9,6.9-6.9l1.9,0C89.7,41.2,92.8,44.3,92.8,48.1z M9.2,39.2h0.4H33h0.4l20.5,17.1h-9.7v0.1  c-2.4,0.6-4.1,4-4.1,8.5c0,1.4,0.2,2.7,0.5,3.8L10.1,40L9.2,39.2z M75,48.1V58c-0.8-1.1-1.8-1.7-2.9-1.7H57L35.2,38  c1.5-1.4,2.5-4,2.5-6.9c0-3.2-1.2-6-2.9-7.3v-8.6L75,43.9V48.1z M47.7,64.9c0,3.8-1.5,6.6-2.8,6.6s-2.8-2.8-2.8-6.6  c0-3.8,1.5-6.6,2.8-6.6S47.7,61.2,47.7,64.9z M49.7,64.9c0-2.7-0.6-5-1.7-6.6h24.1c1.4,0,2.9,3,2.9,7.1s-1.5,7.1-2.9,7.1h-25  C48.7,71.2,49.7,68.4,49.7,64.9z M77.1,71.4c0.4,0.5,0.8,0.9,1.2,1.2h-1.2V71.4z M39.9,9.1c1,0,2,0.3,2.8,0.8L85,39.2l-1,0  c-2.9,0-5.5,1.4-7.1,3.6c-0.1-0.1-0.1-0.1-0.2-0.2L34.9,12.9C35.5,10.7,37.5,9.1,39.9,9.1z M32.8,25.1c1.4,0.3,2.9,2.7,2.9,6  c0,3.3-1.5,5.7-2.9,6c-0.1,0-0.1,0-0.2,0.1H12.2c1.1-1.4,1.9-3.7,1.9-6.4c0-2.3-0.5-4.3-1.4-5.7h19.9C32.7,25,32.7,25.1,32.8,25.1z   M9.6,25c1,0,2.4,2.2,2.4,5.7s-1.4,5.7-2.4,5.7s-2.4-2.2-2.4-5.7S8.6,25,9.6,25z M7.7,40.5l4.8,4.5l30.7,29v15.5L7.7,54V40.5z   M91.3,90.9H45.2V74.6h26.9H84h1.9h5.4V90.9z"/></svg>
